# xmcd
#
# Track frame offsets:
#	150
#	16160
#	33540
#	48650
#	68550
#	86810
#	104390
#	119570
#	139890
#	156210
#
# Disc length: 2320 seconds
#
# Revision: 1
# Processed by: cddbd v1.5.1PL0 Copyright (c) Steve Scherf et al.
# Submitted via: audiograbber 1.83.01
#
DISCID=88090e0a
DTITLE=Rosanne Cash - Kings Record Shop
DYEAR=1987
DGENRE=Country
TTITLE0=Rosanne Cash - 01 - Rosie Strike Back
TTITLE1=Rosanne Cash - 02 - The Way We Make A Broken Heart
TTITLE2=Rosanne Cash - 03 - If You Change Your Mind
TTITLE3=Rosanne Cash - 04 - The Real Me
TTITLE4=Rosanne Cash - 05 - Somewhere Sometime
TTITLE5=Rosanne Cash - 06 - Runaway Train
TTITLE6=Rosanne Cash - 07 - Tennessee Flat Top Box
TTITLE7=Rosanne Cash - 08 - I Don't Have To Crawl
TTITLE8=Rosanne Cash - 09 - Green,Yellow And Red
TTITLE9=Rosanne Cash - 10 - Why Don't You Quit Leaving Me Alone
EXTD=
EXTT0=
EXTT1=
EXTT2=
EXTT3=
EXTT4=
EXTT5=
EXTT6=
EXTT7=
EXTT8=
EXTT9=
PLAYORDER=
